<mxfile host="app.diagrams.net" agent="Mozilla/5.0 (Windows NT 10.0; Win64; x64) AppleWebKit/537.36 (KHTML, like Gecko) Chrome/135.0.0.0 Safari/537.36" version="27.0.1">
  <diagram name="Page-1" id="cTHYU6XS5OVSxQZPa_wY">
    <mxGraphModel dx="1892" dy="-450" grid="1" gridSize="10" guides="1" tooltips="1" connect="1" arrows="1" fold="1" page="1" pageScale="1" pageWidth="850" pageHeight="1100" math="0" shadow="0">
      <root>
        <mxCell id="0" />
        <mxCell id="1" parent="0" />
        <mxCell id="FsnWe4_qINbCdi7X3UNo-32" value="Gas Leak" style="whiteSpace=wrap;strokeWidth=2;rounded=1;fillColor=#f8cecc;strokeColor=#b85450;" vertex="1" parent="1">
          <mxGeometry x="-457" y="1450" width="124" height="54" as="geometry" />
        </mxCell>
        <mxCell id="FsnWe4_qINbCdi7X3UNo-33" value="MQ-2 Sensor" style="whiteSpace=wrap;strokeWidth=2;rounded=1;fillColor=#dae8fc;strokeColor=#6c8ebf;" vertex="1" parent="1">
          <mxGeometry x="-469" y="1576" width="148" height="54" as="geometry" />
        </mxCell>
        <mxCell id="FsnWe4_qINbCdi7X3UNo-34" value="ESP32" style="whiteSpace=wrap;strokeWidth=2;rounded=1;fillColor=#dae8fc;strokeColor=#6c8ebf;" vertex="1" parent="1">
          <mxGeometry x="-446" y="1703" width="102" height="54" as="geometry" />
        </mxCell>
        <mxCell id="FsnWe4_qINbCdi7X3UNo-35" value="Alert Message" style="whiteSpace=wrap;strokeWidth=2;rounded=1;fillColor=#ffe6cc;strokeColor=#d79b00;" vertex="1" parent="1">
          <mxGeometry x="-731" y="1857" width="158" height="54" as="geometry" />
        </mxCell>
        <mxCell id="FsnWe4_qINbCdi7X3UNo-47" style="edgeStyle=orthogonalEdgeStyle;rounded=0;orthogonalLoop=1;jettySize=auto;html=1;curved=1;" edge="1" parent="1" source="FsnWe4_qINbCdi7X3UNo-36" target="FsnWe4_qINbCdi7X3UNo-39">
          <mxGeometry relative="1" as="geometry">
            <Array as="points">
              <mxPoint x="-469" y="1970" />
              <mxPoint x="-321" y="1970" />
            </Array>
          </mxGeometry>
        </mxCell>
        <mxCell id="FsnWe4_qINbCdi7X3UNo-51" value="contributes to" style="edgeLabel;html=1;align=center;verticalAlign=middle;resizable=0;points=[];" vertex="1" connectable="0" parent="FsnWe4_qINbCdi7X3UNo-47">
          <mxGeometry x="-0.1196" relative="1" as="geometry">
            <mxPoint x="-11" y="-10" as="offset" />
          </mxGeometry>
        </mxCell>
        <mxCell id="FsnWe4_qINbCdi7X3UNo-36" value="Buzzer" style="whiteSpace=wrap;strokeWidth=2;rounded=1;fillColor=#ffe6cc;strokeColor=#d79b00;" vertex="1" parent="1">
          <mxGeometry x="-523" y="1857" width="108" height="54" as="geometry" />
        </mxCell>
        <mxCell id="FsnWe4_qINbCdi7X3UNo-37" value="LED" style="whiteSpace=wrap;strokeWidth=2;rounded=1;fillColor=#ffe6cc;strokeColor=#d79b00;" vertex="1" parent="1">
          <mxGeometry x="-365" y="1857" width="86" height="54" as="geometry" />
        </mxCell>
        <mxCell id="FsnWe4_qINbCdi7X3UNo-48" style="edgeStyle=orthogonalEdgeStyle;rounded=0;orthogonalLoop=1;jettySize=auto;html=1;curved=1;" edge="1" parent="1" source="FsnWe4_qINbCdi7X3UNo-38" target="FsnWe4_qINbCdi7X3UNo-39">
          <mxGeometry relative="1" as="geometry" />
        </mxCell>
        <mxCell id="FsnWe4_qINbCdi7X3UNo-52" value="contributes to" style="edgeLabel;html=1;align=center;verticalAlign=middle;resizable=0;points=[];" vertex="1" connectable="0" parent="FsnWe4_qINbCdi7X3UNo-48">
          <mxGeometry x="0.0187" y="-3" relative="1" as="geometry">
            <mxPoint x="-9" y="-3" as="offset" />
          </mxGeometry>
        </mxCell>
        <mxCell id="FsnWe4_qINbCdi7X3UNo-38" value="Telegram Bot" style="ellipse;aspect=fixed;strokeWidth=2;whiteSpace=wrap;fillColor=#d5e8d4;strokeColor=#82b366;" vertex="1" parent="1">
          <mxGeometry x="-706.5" y="1983.5" width="109" height="109" as="geometry" />
        </mxCell>
        <mxCell id="FsnWe4_qINbCdi7X3UNo-39" value="SDGs" style="whiteSpace=wrap;strokeWidth=2;fillColor=#d5e8d4;strokeColor=#82b366;" vertex="1" parent="1">
          <mxGeometry x="-369" y="2011" width="95" height="54" as="geometry" />
        </mxCell>
        <mxCell id="FsnWe4_qINbCdi7X3UNo-40" value="detected by" style="curved=1;startArrow=none;endArrow=block;exitX=0.5;exitY=1;entryX=0.5;entryY=0.01;rounded=0;" edge="1" parent="1" source="FsnWe4_qINbCdi7X3UNo-32" target="FsnWe4_qINbCdi7X3UNo-33">
          <mxGeometry relative="1" as="geometry">
            <Array as="points" />
          </mxGeometry>
        </mxCell>
        <mxCell id="FsnWe4_qINbCdi7X3UNo-41" value="sends data to" style="curved=1;startArrow=none;endArrow=block;exitX=0.5;exitY=1.01;entryX=0.5;entryY=0;rounded=0;" edge="1" parent="1" source="FsnWe4_qINbCdi7X3UNo-33" target="FsnWe4_qINbCdi7X3UNo-34">
          <mxGeometry relative="1" as="geometry">
            <Array as="points" />
          </mxGeometry>
        </mxCell>
        <mxCell id="FsnWe4_qINbCdi7X3UNo-42" value="has predefined" style="curved=1;startArrow=none;endArrow=block;exitX=0;exitY=0.73;entryX=0.5;entryY=0;rounded=0;" edge="1" parent="1" source="FsnWe4_qINbCdi7X3UNo-34" target="FsnWe4_qINbCdi7X3UNo-35">
          <mxGeometry relative="1" as="geometry">
            <Array as="points">
              <mxPoint x="-652" y="1793" />
            </Array>
          </mxGeometry>
        </mxCell>
        <mxCell id="FsnWe4_qINbCdi7X3UNo-43" value="activates" style="curved=1;startArrow=none;endArrow=block;exitX=0.19;exitY=1;entryX=0.5;entryY=0;rounded=0;" edge="1" parent="1" source="FsnWe4_qINbCdi7X3UNo-34" target="FsnWe4_qINbCdi7X3UNo-36">
          <mxGeometry relative="1" as="geometry">
            <Array as="points">
              <mxPoint x="-469" y="1793" />
            </Array>
          </mxGeometry>
        </mxCell>
        <mxCell id="FsnWe4_qINbCdi7X3UNo-44" value="activates" style="curved=1;startArrow=none;endArrow=block;exitX=0.81;exitY=1;entryX=0.51;entryY=0;rounded=0;" edge="1" parent="1" source="FsnWe4_qINbCdi7X3UNo-34" target="FsnWe4_qINbCdi7X3UNo-37">
          <mxGeometry relative="1" as="geometry">
            <Array as="points">
              <mxPoint x="-321" y="1793" />
            </Array>
          </mxGeometry>
        </mxCell>
        <mxCell id="FsnWe4_qINbCdi7X3UNo-45" value="sends message via" style="startArrow=none;endArrow=block;rounded=0;edgeStyle=orthogonalEdgeStyle;curved=1;" edge="1" parent="1" source="FsnWe4_qINbCdi7X3UNo-35" target="FsnWe4_qINbCdi7X3UNo-38">
          <mxGeometry relative="1" as="geometry">
            <mxPoint x="-790.0000000000002" y="1965.9602510460252" as="sourcePoint" />
            <mxPoint x="-772.5" y="2067" as="targetPoint" />
          </mxGeometry>
        </mxCell>
        <mxCell id="FsnWe4_qINbCdi7X3UNo-46" value="contributes to" style="curved=1;startArrow=none;endArrow=block;exitX=0.51;exitY=1;entryX=0.5;entryY=0;rounded=0;" edge="1" parent="1" source="FsnWe4_qINbCdi7X3UNo-37" target="FsnWe4_qINbCdi7X3UNo-39">
          <mxGeometry x="-0.42" relative="1" as="geometry">
            <Array as="points" />
            <mxPoint as="offset" />
          </mxGeometry>
        </mxCell>
      </root>
    </mxGraphModel>
  </diagram>
</mxfile>
